{"title":"Crimson.Tide.1995.BRRip.H264.AAC.5.1ch.Gopo","uid":5243390,"size":2179119681,"categoryP":"video","categoryS":"hd___movies","magnet":"?xt=urn:btih:c3c4c836e25b071913864f871a2d0bae27c6ab00&amp;dn=Crimson.Tide.1995.BRRip.H264.AAC.5.1ch.Gopo&amp;tr=udp%3A%2F%2Ftracker.openbittorrent.com%3A80&amp;tr=udp%3A%2F%2Fopen.demonii.com%3A1337&amp;tr=udp%3A%2F%2Ftracker.coppersurfer.tk%3A6969&amp;tr=udp%3A%2F%2Fexodus.desync.com%3A6969","seeders":1,"leechers":0,"uploader":"kriss_kringle","files":-1,"time":1261878902,"description":"General\n      Complete name : Crimson.Tide.1995.BRRip.H264.AAC.5.1ch.Gopo.mp4\n      Format : MPEG-4\n      Format profile : Base Media\n      Codec ID : isom\n      File size : 2.01 GiB\n      Duration : 1h 55mn\n      Overall bit rate : 2 480 Kbps\n      Encoded date : UTC 2009-12-25 16:53:20\n      Tagged date : UTC 2009-12-25 16:53:20\n      Writing application : Yamb 2.1.0.0 [http://yamb.unite-video.com]\n   Video #2\n      ID : 2\n      Format : AVC\n      Format/Info : Advanced Video Codec\n      Format profile : &lt;a class=&quot;__cf_email__&quot; href=&quot;/cdn-cgi/l/email-protection&quot; data-cfemail=&quot;4008292728000c746e71&quot;&gt;[email&amp;#160;protected]&lt;/a&gt;&lt;script cf-hash='f9e31' type=&quot;text/javascript&quot;&gt;\n/* &lt;![CDATA[ */!function(){try{var t=&quot;currentScript&quot;in document?document.currentScript:function(){for(var t=document.getElementsByTagName(&quot;script&quot;),e=t.length;e--;)if(t[e].getAttribute(&quot;cf-hash&quot;))return t[e]}();if(t&amp;&amp;t.previousSibling){var e,r,n,i,c=t.previousSibling,a=c.getAttribute(&quot;data-cfemail&quot;);if(a){for(e=&quot;&quot;,r=parseInt(a.substr(0,2),16),n=2;a.length-n;n+=2)i=parseInt(a.substr(n,2),16)^r,e+=String.fromCharCode(i);e=document.createTextNode(e),c.parentNode.replaceChild(e,c)}}}catch(u){}}();/* ]]&gt; */&lt;/script&gt;\n      Format settings, CABAC : Yes\n      Format settings, ReFrames : 5 frames\n      Codec ID : avc1\n      Codec ID/Info : Advanced Video Coding\n      Duration : 1h 55mn\n      Bit rate mode : Variable\n      Bit rate : 2 141 Kbps\n      Maximum bit rate : 12.3 Mbps\n      Width : 1 280 pixels\n      Height : 528 pixels\n      Display aspect ratio : 2.40:1\n      Frame rate mode : Constant\n      Frame rate : 23.976 fps\n      Resolution : 24 bits\n      Colorimetry : 4:2:0\n      Scan type : Progressive\n      Bits/(Pixel*Frame) : 0.132\n      Stream size : 1.73 GiB (86%)\n      Writing library : x264 core 79 r1360 528c100\n      Encoding settings : cabac=1 / ref=5 / deblock=1:0:0 / analyse=0x3:0x113 / me=umh / subme=8 / psy=1 / psy_rd=1.0:0.0 / mixed_ref=1 / me_range=16 / chroma_me=1 / trellis=2 / 8x8dct=1 / cqm=0 / deadzone=21,11 / chroma_qp_offset=-2 / threads=1 / nr=0 / decimate=1 / mbaff=0 / constrained_intra=0 / bframes=3 / b_pyramid=0 / b_adapt=2 / b_bias=0 / direct=3 / wpredb=1 / wpredp=2 / keyint=250 / keyint_min=25 / scenecut=40 / rc_lookahead=30 / rc=2pass / mbtree=1 / bitrate=2141 / ratetol=1.0 / qcomp=0.50 / qpmin=10 / qpmax=51 / qpstep=4 / cplxblur=20.0 / qblur=0.5 / vbv_maxrate=24000 / vbv_bufsize=24000 / ip_ratio=1.10 / aq=1:1.00\n      Encoded date : UTC 2009-12-24 02:47:07\n      Tagged date : UTC 2009-12-25 16:55:17\n   Audio #1\n      ID : 1\n      Format : AAC\n      Format/Info : Advanced Audio Codec\n      Format version : Version 4\n      Format profile : LC\n      Format settings, SBR : No\n      Codec ID : 40\n      Duration : 1h 55mn\n      Bit rate mode : Variable\n      Bit rate : 336 Kbps\n      Maximum bit rate : 441 Kbps\n      Channel(s) : 6 channels\n      Channel positions : Front: L C R, Rear: L R, LFE\n      Sampling rate : 48.0 KHz\n      Resolution : 16 bits\n      Stream size : 278 MiB (14%)\n      Encoded date : UTC 2009-12-25 16:53:20\n      Tagged date : UTC 2009-12-25 16:55:17\t\n\tSample : YES\n\tSubtitle : English,Romanian\n\nPLOT\n\nAs the Russian civil war gradually gets worse, The U.S. Navy gets activated. Fearing a Nuclear fallout, upstart Commander Hunter and veteran Captain Ramsey along with several other naval officers aboard a Nuclear missile submarine to avert the attack on the United States. But, due to some misunderstanding, Hunter and Ramsey begin to quarrel for command of the Submarine.\nDirector: Tony Scott\nCASTING \n     \n      Denzel Washington\t... \tLt. Commander Ron Hunter\n\tGene Hackman\t... \tCapt. Frank Ramsey\n\tMatt Craven\t... \tLt. Roy Zimmer, USS Alabama Communications Officer\n\tGeorge Dzundza\t... \tChief of the Boat\n\tViggo Mortensen\t... \tLt. Peter 'Weps' Ince\n\tJames Gandolfini\t... \tLt. Bobby Dougherty\n\tRocky Carroll\t... \tLt. Darik Westergard\n\tJaime Gomez\t... \tOfficer of the Deck Mahoney (as Jaime P. Gomez)\n\tMichael Milhoan\t... \tChief of the Watch Hunsicker\n\tScott Burkholder\t... \tT.S.O. Billy Linkletter\n\tDanny Nucci\t... \tPetty Officer First Class Danny Rivetti\n\tLillo Brancato\t... \tPetty Officer Third Class Russell Vossler (as Lillo Brancato Jr.)\n\tEric Bruskotter\t... \tBennefield\n\tRick Schroder\t... \tLt. Paul Hellerman\n\tSteve Zahn\t... \tWilliam Barnes\n\nSOURCE: Crimson.Tide.1995.BluRay.1080p.x264.DTS-NiX.Rus.mkv\n\nNotes: For best performance I suggest you to use KMPlayer(find it with google) for playback\nI haven't tested the movies on a PS3 or Xbox or other devices than PC because I don't own one of them but feel free to test them if you have the oportunity.\n","torrent":{"xt":"urn:btih:c3c4c836e25b071913864f871a2d0bae27c6ab00","amp;dn":"Crimson.Tide.1995.BRRip.H264.AAC.5.1ch.Gopo","amp;tr":["udp%3A%2F%2Ftracker.openbittorrent.com%3A80","udp%3A%2F%2Fopen.demonii.com%3A1337","udp%3A%2F%2Ftracker.coppersurfer.tk%3A6969","udp%3A%2F%2Fexodus.desync.com%3A6969"],"infoHash":"c3c4c836e25b071913864f871a2d0bae27c6ab00","infoHashBuffer":{"type":"Buffer","data":[195,196,200,54,226,91,7,25,19,134,79,135,26,45,11,174,39,198,171,0]},"announce":[],"urlList":[]}}